<?xml version="1.0" standalone="no"?>
<!DOCTYPE svg PUBLIC "-//W3C//DTD SVG 20010904//EN"
 "http://www.w3.org/TR/2001/REC-SVG-20010904/DTD/svg10.dtd">
<svg version="1.0" xmlns="http://www.w3.org/2000/svg"
 width="550.000000pt" height="550.000000pt" viewBox="0 0 550.000000 550.000000"
 preserveAspectRatio="xMidYMid meet">
<metadata>
Created by potrace 1.11, written by Peter Selinger 2001-2013
</metadata>
<g transform="translate(0.000000,550.000000) scale(0.100000,-0.100000)"
fill="#000000" stroke="none">
<path d="M2905 5461 c-22 -10 -73 -39 -112 -65 -75 -48 -149 -80 -164 -70 -5
3 -18 7 -30 9 -21 4 -36 12 -186 89 -98 51 -151 54 -203 12 -32 -27 -154 -182
-185 -237 -5 -10 -31 -53 -56 -96 -47 -79 -126 -241 -182 -373 -22 -52 -63
-184 -83 -272 l-18 -76 -27 29 c-50 53 -117 66 -180 35 -160 -81 -70 -323 106
-284 36 8 42 7 60 -17 15 -18 22 -42 23 -88 3 -84 -5 -119 -26 -113 -94 28
-471 29 -612 1 -14 -3 -45 -8 -70 -11 -25 -3 -48 -8 -51 -10 -4 -2 -24 -6 -44
-10 -60 -9 -69 -11 -188 -43 -286 -76 -468 -176 -509 -280 -18 -45 -12 -102
21 -201 46 -137 49 -177 18 -226 -14 -21 -42 -57 -62 -79 -142 -152 -166 -204
-129 -278 22 -42 147 -196 221 -272 73 -74 98 -96 282 -250 144 -119 386 -251
554 -302 l49 -14 -17 -25 c-84 -128 -209 -397 -230 -494 -2 -8 -8 -28 -14 -43
-6 -15 -13 -42 -16 -59 -3 -17 -9 -36 -13 -42 -3 -6 -8 -20 -9 -30 -2 -11 -10
-45 -18 -75 -7 -31 -19 -83 -24 -116 -6 -33 -13 -71 -16 -85 -18 -91 -26 -324
-13 -385 8 -36 45 -110 64 -127 32 -28 91 -48 172 -58 148 -19 185 -32 214
-73 13 -18 23 -34 24 -37 0 -3 10 -27 22 -53 12 -27 22 -52 22 -57 0 -4 12
-33 26 -65 29 -63 84 -124 114 -126 11 -1 26 -2 33 -2 10 -1 42 4 119 19 30 5
211 54 243 65 85 31 278 116 389 172 100 51 224 130 306 196 69 55 201 190
245 250 l39 54 46 -53 c191 -223 378 -361 717 -529 68 -34 125 -61 128 -61 2
0 28 -11 57 -24 125 -56 275 -94 370 -94 110 0 183 44 209 128 6 19 15 39 20
45 5 5 9 15 9 23 0 7 15 46 33 86 27 58 41 76 68 89 40 19 101 33 179 42 138
15 206 56 219 132 8 43 6 266 -3 358 -8 82 -12 104 -36 225 -12 58 -24 116
-26 130 -3 14 -7 33 -10 42 -3 9 -7 26 -9 38 -16 82 -129 358 -177 435 -55 86
-91 136 -122 174 l-37 45 58 21 c161 58 396 216 587 395 244 228 377 396 419
529 36 113 13 169 -109 273 -137 115 -146 138 -111 297 43 200 30 258 -66 304
-52 24 -215 85 -247 92 -8 2 -51 12 -95 23 -44 11 -100 23 -125 27 -25 4 -54
9 -65 11 -30 6 -97 16 -125 19 -14 2 -54 7 -90 11 -172 19 -569 2 -691 -31
-24 -6 -27 -4 -34 32 -11 49 -9 55 29 138 18 39 37 81 42 93 8 20 18 24 62 26
166 8 203 227 49 291 -148 61 -277 -134 -163 -248 l25 -25 -23 -56 c-13 -31
-25 -59 -28 -61 -3 -3 -11 29 -17 72 -36 230 -115 454 -251 718 -96 185 -152
274 -234 370 -68 79 -92 100 -150 130 -59 30 -106 31 -161 6z"/>
</g>
</svg>
